<mxfile host="app.diagrams.net" modified="2022-02-26T01:27:51.304Z" agent="5.0 (Windows)" etag="3XgjhMSi2LMbnExCDvvB" version="16.6.4" type="github">
  <diagram id="C5RBs43oDa-KdzZeNtuy" name="Page-1">
    <mxGraphModel dx="1021" dy="1733" grid="1" gridSize="10" guides="1" tooltips="1" connect="1" arrows="1" fold="1" page="1" pageScale="1" pageWidth="827" pageHeight="1169" math="0" shadow="0">
      <root>
        <mxCell id="WIyWlLk6GJQsqaUBKTNV-0" />
        <mxCell id="WIyWlLk6GJQsqaUBKTNV-1" parent="WIyWlLk6GJQsqaUBKTNV-0" />
        <mxCell id="WIyWlLk6GJQsqaUBKTNV-2" value="" style="rounded=0;html=1;jettySize=auto;orthogonalLoop=1;fontSize=11;endArrow=block;endFill=0;endSize=8;strokeWidth=1;shadow=0;labelBackgroundColor=none;edgeStyle=orthogonalEdgeStyle;entryX=0.5;entryY=0;entryDx=0;entryDy=0;exitX=0.5;exitY=1;exitDx=0;exitDy=0;" parent="WIyWlLk6GJQsqaUBKTNV-1" source="ppS3Hu1m2jGu0qgifACF-142" target="WIyWlLk6GJQsqaUBKTNV-6" edge="1">
          <mxGeometry relative="1" as="geometry">
            <mxPoint x="220" y="60" as="sourcePoint" />
            <mxPoint x="220" y="140" as="targetPoint" />
          </mxGeometry>
        </mxCell>
        <mxCell id="WIyWlLk6GJQsqaUBKTNV-3" value="input passed to translate() function" style="rounded=1;whiteSpace=wrap;html=1;fontSize=12;glass=0;strokeWidth=1;shadow=0;" parent="WIyWlLk6GJQsqaUBKTNV-1" vertex="1">
          <mxGeometry x="160" y="-100" width="120" height="40" as="geometry" />
        </mxCell>
        <mxCell id="WIyWlLk6GJQsqaUBKTNV-4" value="Yes" style="rounded=0;html=1;jettySize=auto;orthogonalLoop=1;fontSize=11;endArrow=block;endFill=0;endSize=8;strokeWidth=1;shadow=0;labelBackgroundColor=none;edgeStyle=orthogonalEdgeStyle;entryX=0.5;entryY=0;entryDx=0;entryDy=0;exitX=0.5;exitY=1;exitDx=0;exitDy=0;" parent="WIyWlLk6GJQsqaUBKTNV-1" source="WIyWlLk6GJQsqaUBKTNV-6" target="ppS3Hu1m2jGu0qgifACF-3" edge="1">
          <mxGeometry y="20" relative="1" as="geometry">
            <mxPoint as="offset" />
            <mxPoint x="220" y="290" as="sourcePoint" />
            <mxPoint x="220" y="290" as="targetPoint" />
          </mxGeometry>
        </mxCell>
        <mxCell id="WIyWlLk6GJQsqaUBKTNV-5" value="No" style="edgeStyle=orthogonalEdgeStyle;rounded=0;html=1;jettySize=auto;orthogonalLoop=1;fontSize=11;endArrow=block;endFill=0;endSize=8;strokeWidth=1;shadow=0;labelBackgroundColor=none;" parent="WIyWlLk6GJQsqaUBKTNV-1" source="WIyWlLk6GJQsqaUBKTNV-6" target="WIyWlLk6GJQsqaUBKTNV-7" edge="1">
          <mxGeometry y="10" relative="1" as="geometry">
            <mxPoint as="offset" />
          </mxGeometry>
        </mxCell>
        <mxCell id="WIyWlLk6GJQsqaUBKTNV-6" value="Contains T Base?" style="rhombus;whiteSpace=wrap;html=1;shadow=0;fontFamily=Helvetica;fontSize=12;align=center;strokeWidth=1;spacing=6;spacingTop=-4;" parent="WIyWlLk6GJQsqaUBKTNV-1" vertex="1">
          <mxGeometry x="170" y="170" width="100" height="80" as="geometry" />
        </mxCell>
        <mxCell id="WIyWlLk6GJQsqaUBKTNV-7" value="Translate DNA" style="rounded=1;whiteSpace=wrap;html=1;fontSize=12;glass=0;strokeWidth=1;shadow=0;" parent="WIyWlLk6GJQsqaUBKTNV-1" vertex="1">
          <mxGeometry x="320" y="190" width="120" height="40" as="geometry" />
        </mxCell>
        <mxCell id="ppS3Hu1m2jGu0qgifACF-2" value="Translate tRNA" style="rounded=1;whiteSpace=wrap;html=1;fontSize=12;glass=0;strokeWidth=1;shadow=0;" vertex="1" parent="WIyWlLk6GJQsqaUBKTNV-1">
          <mxGeometry x="320" y="650" width="120" height="40" as="geometry" />
        </mxCell>
        <mxCell id="ppS3Hu1m2jGu0qgifACF-3" value="mRNA defined?" style="rhombus;whiteSpace=wrap;html=1;shadow=0;fontFamily=Helvetica;fontSize=12;align=center;strokeWidth=1;spacing=6;spacingTop=-4;" vertex="1" parent="WIyWlLk6GJQsqaUBKTNV-1">
          <mxGeometry x="170" y="630" width="100" height="80" as="geometry" />
        </mxCell>
        <mxCell id="ppS3Hu1m2jGu0qgifACF-4" value="No" style="edgeStyle=orthogonalEdgeStyle;rounded=0;html=1;jettySize=auto;orthogonalLoop=1;fontSize=11;endArrow=block;endFill=0;endSize=8;strokeWidth=1;shadow=0;labelBackgroundColor=none;entryX=0;entryY=0.5;entryDx=0;entryDy=0;exitX=1;exitY=0.5;exitDx=0;exitDy=0;" edge="1" parent="WIyWlLk6GJQsqaUBKTNV-1" source="ppS3Hu1m2jGu0qgifACF-3" target="ppS3Hu1m2jGu0qgifACF-2">
          <mxGeometry y="10" relative="1" as="geometry">
            <mxPoint as="offset" />
            <mxPoint x="280" y="440" as="sourcePoint" />
            <mxPoint x="320" y="440" as="targetPoint" />
          </mxGeometry>
        </mxCell>
        <mxCell id="ppS3Hu1m2jGu0qgifACF-6" value="Translate mRNA" style="rounded=1;whiteSpace=wrap;html=1;fontSize=12;glass=0;strokeWidth=1;shadow=0;" vertex="1" parent="WIyWlLk6GJQsqaUBKTNV-1">
          <mxGeometry x="320" y="1129" width="120" height="40" as="geometry" />
        </mxCell>
        <mxCell id="ppS3Hu1m2jGu0qgifACF-8" value="No" style="edgeStyle=orthogonalEdgeStyle;rounded=0;html=1;jettySize=auto;orthogonalLoop=1;fontSize=11;endArrow=block;endFill=0;endSize=8;strokeWidth=1;shadow=0;labelBackgroundColor=none;fontColor=none;noLabel=1;entryX=0;entryY=0.5;entryDx=0;entryDy=0;exitX=1;exitY=0.5;exitDx=0;exitDy=0;" edge="1" parent="WIyWlLk6GJQsqaUBKTNV-1" source="WIyWlLk6GJQsqaUBKTNV-7" target="ppS3Hu1m2jGu0qgifACF-18">
          <mxGeometry y="10" relative="1" as="geometry">
            <mxPoint as="offset" />
            <mxPoint x="465" y="260" as="sourcePoint" />
            <mxPoint x="470" y="210" as="targetPoint" />
          </mxGeometry>
        </mxCell>
        <mxCell id="ppS3Hu1m2jGu0qgifACF-11" value="look through each variable in RNA string individually" style="rounded=1;whiteSpace=wrap;html=1;fontSize=10;glass=0;strokeWidth=1;shadow=0;" vertex="1" parent="WIyWlLk6GJQsqaUBKTNV-1">
          <mxGeometry x="490" y="1130" width="120" height="40" as="geometry" />
        </mxCell>
        <mxCell id="ppS3Hu1m2jGu0qgifACF-12" value="Input given by user" style="rounded=1;whiteSpace=wrap;html=1;fontSize=12;glass=0;strokeWidth=1;shadow=0;" vertex="1" parent="WIyWlLk6GJQsqaUBKTNV-1">
          <mxGeometry x="160" y="-270" width="120" height="40" as="geometry" />
        </mxCell>
        <mxCell id="ppS3Hu1m2jGu0qgifACF-13" value="" style="rounded=0;html=1;jettySize=auto;orthogonalLoop=1;fontSize=11;endArrow=block;endFill=0;strokeWidth=1;shadow=0;labelBackgroundColor=none;edgeStyle=orthogonalEdgeStyle;exitX=0.5;exitY=1;exitDx=0;exitDy=0;entryX=0.5;entryY=0;entryDx=0;entryDy=0;shape=link;" edge="1" parent="WIyWlLk6GJQsqaUBKTNV-1" source="ppS3Hu1m2jGu0qgifACF-12" target="WIyWlLk6GJQsqaUBKTNV-3">
          <mxGeometry relative="1" as="geometry">
            <mxPoint x="219.5" y="30" as="sourcePoint" />
            <mxPoint x="220" y="-130" as="targetPoint" />
          </mxGeometry>
        </mxCell>
        <mxCell id="ppS3Hu1m2jGu0qgifACF-14" value="look through each variable in RNA string individually" style="rounded=1;whiteSpace=wrap;html=1;fontSize=10;glass=0;strokeWidth=1;shadow=0;" vertex="1" parent="WIyWlLk6GJQsqaUBKTNV-1">
          <mxGeometry x="490" y="650" width="120" height="40" as="geometry" />
        </mxCell>
        <mxCell id="ppS3Hu1m2jGu0qgifACF-16" value="No" style="edgeStyle=orthogonalEdgeStyle;rounded=0;html=1;jettySize=auto;orthogonalLoop=1;fontSize=11;endArrow=block;endFill=0;endSize=8;strokeWidth=1;shadow=0;labelBackgroundColor=none;fontColor=none;noLabel=1;exitX=1;exitY=0.5;exitDx=0;exitDy=0;entryX=0;entryY=0.5;entryDx=0;entryDy=0;" edge="1" parent="WIyWlLk6GJQsqaUBKTNV-1" source="ppS3Hu1m2jGu0qgifACF-6" target="ppS3Hu1m2jGu0qgifACF-11">
          <mxGeometry y="10" relative="1" as="geometry">
            <mxPoint as="offset" />
            <mxPoint x="-160" y="735" as="sourcePoint" />
            <mxPoint x="-110" y="735" as="targetPoint" />
          </mxGeometry>
        </mxCell>
        <mxCell id="ppS3Hu1m2jGu0qgifACF-18" value="look through each variable in DNA string individually" style="rounded=1;whiteSpace=wrap;html=1;fontSize=10;glass=0;strokeWidth=1;shadow=0;" vertex="1" parent="WIyWlLk6GJQsqaUBKTNV-1">
          <mxGeometry x="490" y="190" width="120" height="40" as="geometry" />
        </mxCell>
        <mxCell id="ppS3Hu1m2jGu0qgifACF-19" value="for base in string:" style="edgeStyle=orthogonalEdgeStyle;rounded=0;jettySize=auto;orthogonalLoop=1;fontSize=10;endArrow=block;endFill=0;endSize=8;strokeWidth=1;shadow=0;labelBackgroundColor=none;fontColor=default;entryX=0;entryY=0.5;entryDx=0;entryDy=0;" edge="1" parent="WIyWlLk6GJQsqaUBKTNV-1" target="ppS3Hu1m2jGu0qgifACF-20">
          <mxGeometry x="-0.0048" y="10" relative="1" as="geometry">
            <mxPoint x="-10" y="-10" as="offset" />
            <mxPoint x="610" y="209.5" as="sourcePoint" />
            <mxPoint x="660" y="209.5" as="targetPoint" />
          </mxGeometry>
        </mxCell>
        <mxCell id="ppS3Hu1m2jGu0qgifACF-20" value="Base is A?" style="rhombus;whiteSpace=wrap;html=1;shadow=0;fontFamily=Helvetica;fontSize=12;align=center;strokeWidth=1;spacing=6;spacingTop=-4;" vertex="1" parent="WIyWlLk6GJQsqaUBKTNV-1">
          <mxGeometry x="710" y="170" width="100" height="80" as="geometry" />
        </mxCell>
        <mxCell id="ppS3Hu1m2jGu0qgifACF-22" value="No" style="edgeStyle=orthogonalEdgeStyle;rounded=0;html=1;jettySize=auto;orthogonalLoop=1;fontSize=11;endArrow=block;endFill=0;endSize=8;strokeWidth=1;shadow=0;labelBackgroundColor=none;fontColor=none;noLabel=1;exitX=1;exitY=0.5;exitDx=0;exitDy=0;entryX=0;entryY=0.5;entryDx=0;entryDy=0;" edge="1" parent="WIyWlLk6GJQsqaUBKTNV-1" source="ppS3Hu1m2jGu0qgifACF-2" target="ppS3Hu1m2jGu0qgifACF-14">
          <mxGeometry y="10" relative="1" as="geometry">
            <mxPoint as="offset" />
            <mxPoint x="460" y="439" as="sourcePoint" />
            <mxPoint x="500" y="510" as="targetPoint" />
          </mxGeometry>
        </mxCell>
        <mxCell id="ppS3Hu1m2jGu0qgifACF-24" value="Yes" style="rounded=0;html=1;jettySize=auto;orthogonalLoop=1;fontSize=11;endArrow=block;endFill=0;endSize=8;strokeWidth=1;shadow=0;labelBackgroundColor=none;edgeStyle=orthogonalEdgeStyle;exitX=1;exitY=0.5;exitDx=0;exitDy=0;" edge="1" parent="WIyWlLk6GJQsqaUBKTNV-1" source="ppS3Hu1m2jGu0qgifACF-20">
          <mxGeometry y="10" relative="1" as="geometry">
            <mxPoint as="offset" />
            <mxPoint x="820" y="230" as="sourcePoint" />
            <mxPoint x="870" y="210" as="targetPoint" />
          </mxGeometry>
        </mxCell>
        <mxCell id="ppS3Hu1m2jGu0qgifACF-25" value="Add U base to mRNA string" style="rounded=1;whiteSpace=wrap;html=1;fontSize=10;glass=0;strokeWidth=1;shadow=0;" vertex="1" parent="WIyWlLk6GJQsqaUBKTNV-1">
          <mxGeometry x="870" y="190" width="120" height="40" as="geometry" />
        </mxCell>
        <mxCell id="ppS3Hu1m2jGu0qgifACF-26" value="No" style="edgeStyle=orthogonalEdgeStyle;rounded=0;html=1;jettySize=auto;orthogonalLoop=1;fontSize=11;endArrow=block;endFill=0;endSize=8;strokeWidth=1;shadow=0;labelBackgroundColor=none;fontColor=none;noLabel=1;exitX=1;exitY=0.5;exitDx=0;exitDy=0;" edge="1" parent="WIyWlLk6GJQsqaUBKTNV-1" source="ppS3Hu1m2jGu0qgifACF-25">
          <mxGeometry y="10" relative="1" as="geometry">
            <mxPoint as="offset" />
            <mxPoint x="1010" y="209.58" as="sourcePoint" />
            <mxPoint x="1040" y="210" as="targetPoint" />
          </mxGeometry>
        </mxCell>
        <mxCell id="ppS3Hu1m2jGu0qgifACF-27" value="Add A base to tRNA string" style="rounded=1;whiteSpace=wrap;html=1;fontSize=10;glass=0;strokeWidth=1;shadow=0;" vertex="1" parent="WIyWlLk6GJQsqaUBKTNV-1">
          <mxGeometry x="1050" y="190" width="120" height="40" as="geometry" />
        </mxCell>
        <mxCell id="ppS3Hu1m2jGu0qgifACF-28" value="No" style="edgeStyle=orthogonalEdgeStyle;rounded=0;html=1;jettySize=auto;orthogonalLoop=1;fontSize=11;endArrow=block;endFill=0;endSize=8;strokeWidth=1;shadow=0;labelBackgroundColor=none;exitX=0.5;exitY=1;exitDx=0;exitDy=0;entryX=0.5;entryY=0;entryDx=0;entryDy=0;" edge="1" parent="WIyWlLk6GJQsqaUBKTNV-1" source="ppS3Hu1m2jGu0qgifACF-20" target="ppS3Hu1m2jGu0qgifACF-29">
          <mxGeometry y="10" relative="1" as="geometry">
            <mxPoint as="offset" />
            <mxPoint x="760" y="310" as="sourcePoint" />
            <mxPoint x="760" y="280" as="targetPoint" />
          </mxGeometry>
        </mxCell>
        <mxCell id="ppS3Hu1m2jGu0qgifACF-29" value="Base is T?" style="rhombus;whiteSpace=wrap;html=1;shadow=0;fontFamily=Helvetica;fontSize=12;align=center;strokeWidth=1;spacing=6;spacingTop=-4;" vertex="1" parent="WIyWlLk6GJQsqaUBKTNV-1">
          <mxGeometry x="710" y="280" width="100" height="80" as="geometry" />
        </mxCell>
        <mxCell id="ppS3Hu1m2jGu0qgifACF-30" value="Add U base to mRNA string" style="rounded=1;whiteSpace=wrap;html=1;fontSize=10;glass=0;strokeWidth=1;shadow=0;" vertex="1" parent="WIyWlLk6GJQsqaUBKTNV-1">
          <mxGeometry x="1050" y="300" width="120" height="40" as="geometry" />
        </mxCell>
        <mxCell id="ppS3Hu1m2jGu0qgifACF-32" value="Add A base to tRNA string" style="rounded=1;whiteSpace=wrap;html=1;fontSize=10;glass=0;strokeWidth=1;shadow=0;" vertex="1" parent="WIyWlLk6GJQsqaUBKTNV-1">
          <mxGeometry x="870" y="300" width="120" height="40" as="geometry" />
        </mxCell>
        <mxCell id="ppS3Hu1m2jGu0qgifACF-33" value="No" style="edgeStyle=orthogonalEdgeStyle;rounded=0;html=1;jettySize=auto;orthogonalLoop=1;fontSize=11;endArrow=block;endFill=0;endSize=8;strokeWidth=1;shadow=0;labelBackgroundColor=none;fontColor=none;noLabel=1;exitX=1;exitY=0.5;exitDx=0;exitDy=0;" edge="1" parent="WIyWlLk6GJQsqaUBKTNV-1">
          <mxGeometry y="10" relative="1" as="geometry">
            <mxPoint as="offset" />
            <mxPoint x="990" y="319.58" as="sourcePoint" />
            <mxPoint x="1040" y="319.58" as="targetPoint" />
          </mxGeometry>
        </mxCell>
        <mxCell id="ppS3Hu1m2jGu0qgifACF-34" value="Yes" style="rounded=0;html=1;jettySize=auto;orthogonalLoop=1;fontSize=11;endArrow=block;endFill=0;endSize=8;strokeWidth=1;shadow=0;labelBackgroundColor=none;edgeStyle=orthogonalEdgeStyle;exitX=1;exitY=0.5;exitDx=0;exitDy=0;" edge="1" parent="WIyWlLk6GJQsqaUBKTNV-1">
          <mxGeometry y="10" relative="1" as="geometry">
            <mxPoint as="offset" />
            <mxPoint x="810" y="319.58" as="sourcePoint" />
            <mxPoint x="870" y="319.58" as="targetPoint" />
          </mxGeometry>
        </mxCell>
        <mxCell id="ppS3Hu1m2jGu0qgifACF-35" value="Base is G?" style="rhombus;whiteSpace=wrap;html=1;shadow=0;fontFamily=Helvetica;fontSize=12;align=center;strokeWidth=1;spacing=6;spacingTop=-4;" vertex="1" parent="WIyWlLk6GJQsqaUBKTNV-1">
          <mxGeometry x="710" y="395" width="100" height="80" as="geometry" />
        </mxCell>
        <mxCell id="ppS3Hu1m2jGu0qgifACF-36" value="Yes" style="rounded=0;html=1;jettySize=auto;orthogonalLoop=1;fontSize=11;endArrow=block;endFill=0;endSize=8;strokeWidth=1;shadow=0;labelBackgroundColor=none;edgeStyle=orthogonalEdgeStyle;exitX=1;exitY=0.5;exitDx=0;exitDy=0;" edge="1" parent="WIyWlLk6GJQsqaUBKTNV-1" source="ppS3Hu1m2jGu0qgifACF-35">
          <mxGeometry y="10" relative="1" as="geometry">
            <mxPoint as="offset" />
            <mxPoint x="820" y="455" as="sourcePoint" />
            <mxPoint x="870" y="435" as="targetPoint" />
          </mxGeometry>
        </mxCell>
        <mxCell id="ppS3Hu1m2jGu0qgifACF-37" value="Add C base to mRNA string" style="rounded=1;whiteSpace=wrap;html=1;fontSize=10;glass=0;strokeWidth=1;shadow=0;" vertex="1" parent="WIyWlLk6GJQsqaUBKTNV-1">
          <mxGeometry x="870" y="415" width="120" height="40" as="geometry" />
        </mxCell>
        <mxCell id="ppS3Hu1m2jGu0qgifACF-38" value="No" style="edgeStyle=orthogonalEdgeStyle;rounded=0;html=1;jettySize=auto;orthogonalLoop=1;fontSize=11;endArrow=block;endFill=0;endSize=8;strokeWidth=1;shadow=0;labelBackgroundColor=none;fontColor=none;noLabel=1;exitX=1;exitY=0.5;exitDx=0;exitDy=0;" edge="1" parent="WIyWlLk6GJQsqaUBKTNV-1" source="ppS3Hu1m2jGu0qgifACF-37">
          <mxGeometry y="10" relative="1" as="geometry">
            <mxPoint as="offset" />
            <mxPoint x="1010" y="434.58000000000004" as="sourcePoint" />
            <mxPoint x="1040" y="435" as="targetPoint" />
          </mxGeometry>
        </mxCell>
        <mxCell id="ppS3Hu1m2jGu0qgifACF-39" value="Add G base to tRNA string" style="rounded=1;whiteSpace=wrap;html=1;fontSize=10;glass=0;strokeWidth=1;shadow=0;" vertex="1" parent="WIyWlLk6GJQsqaUBKTNV-1">
          <mxGeometry x="1050" y="415" width="120" height="40" as="geometry" />
        </mxCell>
        <mxCell id="ppS3Hu1m2jGu0qgifACF-40" value="No" style="edgeStyle=orthogonalEdgeStyle;rounded=0;html=1;jettySize=auto;orthogonalLoop=1;fontSize=11;endArrow=block;endFill=0;endSize=8;strokeWidth=1;shadow=0;labelBackgroundColor=none;exitX=0.5;exitY=1;exitDx=0;exitDy=0;entryX=0.5;entryY=0;entryDx=0;entryDy=0;" edge="1" parent="WIyWlLk6GJQsqaUBKTNV-1" source="ppS3Hu1m2jGu0qgifACF-35" target="ppS3Hu1m2jGu0qgifACF-41">
          <mxGeometry y="10" relative="1" as="geometry">
            <mxPoint as="offset" />
            <mxPoint x="760" y="535" as="sourcePoint" />
            <mxPoint x="760" y="505" as="targetPoint" />
          </mxGeometry>
        </mxCell>
        <mxCell id="ppS3Hu1m2jGu0qgifACF-41" value="Base is C?" style="rhombus;whiteSpace=wrap;html=1;shadow=0;fontFamily=Helvetica;fontSize=12;align=center;strokeWidth=1;spacing=6;spacingTop=-4;" vertex="1" parent="WIyWlLk6GJQsqaUBKTNV-1">
          <mxGeometry x="710" y="505" width="100" height="80" as="geometry" />
        </mxCell>
        <mxCell id="ppS3Hu1m2jGu0qgifACF-42" value="Add C base to mRNA string" style="rounded=1;whiteSpace=wrap;html=1;fontSize=10;glass=0;strokeWidth=1;shadow=0;" vertex="1" parent="WIyWlLk6GJQsqaUBKTNV-1">
          <mxGeometry x="1050" y="525" width="120" height="40" as="geometry" />
        </mxCell>
        <mxCell id="ppS3Hu1m2jGu0qgifACF-43" value="Add G base to tRNA string" style="rounded=1;whiteSpace=wrap;html=1;fontSize=10;glass=0;strokeWidth=1;shadow=0;" vertex="1" parent="WIyWlLk6GJQsqaUBKTNV-1">
          <mxGeometry x="870" y="525" width="120" height="40" as="geometry" />
        </mxCell>
        <mxCell id="ppS3Hu1m2jGu0qgifACF-44" value="No" style="edgeStyle=orthogonalEdgeStyle;rounded=0;html=1;jettySize=auto;orthogonalLoop=1;fontSize=11;endArrow=block;endFill=0;endSize=8;strokeWidth=1;shadow=0;labelBackgroundColor=none;fontColor=none;noLabel=1;exitX=1;exitY=0.5;exitDx=0;exitDy=0;" edge="1" parent="WIyWlLk6GJQsqaUBKTNV-1">
          <mxGeometry y="10" relative="1" as="geometry">
            <mxPoint as="offset" />
            <mxPoint x="990" y="544.5800000000002" as="sourcePoint" />
            <mxPoint x="1040" y="544.5800000000002" as="targetPoint" />
          </mxGeometry>
        </mxCell>
        <mxCell id="ppS3Hu1m2jGu0qgifACF-45" value="Yes" style="rounded=0;html=1;jettySize=auto;orthogonalLoop=1;fontSize=11;endArrow=block;endFill=0;endSize=8;strokeWidth=1;shadow=0;labelBackgroundColor=none;edgeStyle=orthogonalEdgeStyle;exitX=1;exitY=0.5;exitDx=0;exitDy=0;" edge="1" parent="WIyWlLk6GJQsqaUBKTNV-1">
          <mxGeometry y="10" relative="1" as="geometry">
            <mxPoint as="offset" />
            <mxPoint x="810" y="544.5800000000002" as="sourcePoint" />
            <mxPoint x="870" y="544.5800000000002" as="targetPoint" />
          </mxGeometry>
        </mxCell>
        <mxCell id="ppS3Hu1m2jGu0qgifACF-48" value="No" style="edgeStyle=orthogonalEdgeStyle;rounded=0;html=1;jettySize=auto;orthogonalLoop=1;fontSize=11;endArrow=block;endFill=0;endSize=8;strokeWidth=1;shadow=0;labelBackgroundColor=none;exitX=0.5;exitY=1;exitDx=0;exitDy=0;entryX=0.5;entryY=0;entryDx=0;entryDy=0;" edge="1" parent="WIyWlLk6GJQsqaUBKTNV-1" source="ppS3Hu1m2jGu0qgifACF-29" target="ppS3Hu1m2jGu0qgifACF-35">
          <mxGeometry y="10" relative="1" as="geometry">
            <mxPoint as="offset" />
            <mxPoint x="709.17" y="350" as="sourcePoint" />
            <mxPoint x="709.17" y="380" as="targetPoint" />
          </mxGeometry>
        </mxCell>
        <mxCell id="ppS3Hu1m2jGu0qgifACF-51" value="Base is A?" style="rhombus;whiteSpace=wrap;html=1;shadow=0;fontFamily=Helvetica;fontSize=12;align=center;strokeWidth=1;spacing=6;spacingTop=-4;" vertex="1" parent="WIyWlLk6GJQsqaUBKTNV-1">
          <mxGeometry x="710" y="630" width="100" height="80" as="geometry" />
        </mxCell>
        <mxCell id="ppS3Hu1m2jGu0qgifACF-52" value="Yes" style="rounded=0;html=1;jettySize=auto;orthogonalLoop=1;fontSize=11;endArrow=block;endFill=0;endSize=8;strokeWidth=1;shadow=0;labelBackgroundColor=none;edgeStyle=orthogonalEdgeStyle;exitX=1;exitY=0.5;exitDx=0;exitDy=0;entryX=0;entryY=0.5;entryDx=0;entryDy=0;" edge="1" parent="WIyWlLk6GJQsqaUBKTNV-1" source="ppS3Hu1m2jGu0qgifACF-51" target="ppS3Hu1m2jGu0qgifACF-53">
          <mxGeometry y="10" relative="1" as="geometry">
            <mxPoint as="offset" />
            <mxPoint x="830" y="710" as="sourcePoint" />
            <mxPoint x="879.9999999999995" y="690" as="targetPoint" />
          </mxGeometry>
        </mxCell>
        <mxCell id="ppS3Hu1m2jGu0qgifACF-53" value="Add A base to DNA string" style="rounded=1;whiteSpace=wrap;html=1;fontSize=10;glass=0;strokeWidth=1;shadow=0;" vertex="1" parent="WIyWlLk6GJQsqaUBKTNV-1">
          <mxGeometry x="880" y="650" width="120" height="40" as="geometry" />
        </mxCell>
        <mxCell id="ppS3Hu1m2jGu0qgifACF-54" value="No" style="edgeStyle=orthogonalEdgeStyle;rounded=0;html=1;jettySize=auto;orthogonalLoop=1;fontSize=11;endArrow=block;endFill=0;endSize=8;strokeWidth=1;shadow=0;labelBackgroundColor=none;fontColor=none;noLabel=1;exitX=1;exitY=0.5;exitDx=0;exitDy=0;entryX=0;entryY=0.5;entryDx=0;entryDy=0;" edge="1" parent="WIyWlLk6GJQsqaUBKTNV-1" source="ppS3Hu1m2jGu0qgifACF-53" target="ppS3Hu1m2jGu0qgifACF-72">
          <mxGeometry y="10" relative="1" as="geometry">
            <mxPoint as="offset" />
            <mxPoint x="1020" y="689.58" as="sourcePoint" />
            <mxPoint x="1049.9999999999995" y="690" as="targetPoint" />
          </mxGeometry>
        </mxCell>
        <mxCell id="ppS3Hu1m2jGu0qgifACF-55" value="No" style="edgeStyle=orthogonalEdgeStyle;rounded=0;html=1;jettySize=auto;orthogonalLoop=1;fontSize=11;endArrow=block;endFill=0;endSize=8;strokeWidth=1;shadow=0;labelBackgroundColor=none;exitX=0.5;exitY=1;exitDx=0;exitDy=0;entryX=0.5;entryY=0;entryDx=0;entryDy=0;" edge="1" parent="WIyWlLk6GJQsqaUBKTNV-1" source="ppS3Hu1m2jGu0qgifACF-51" target="ppS3Hu1m2jGu0qgifACF-56">
          <mxGeometry y="10" relative="1" as="geometry">
            <mxPoint as="offset" />
            <mxPoint x="770" y="790" as="sourcePoint" />
            <mxPoint x="770" y="760" as="targetPoint" />
          </mxGeometry>
        </mxCell>
        <mxCell id="ppS3Hu1m2jGu0qgifACF-56" value="Base is U?" style="rhombus;whiteSpace=wrap;html=1;shadow=0;fontFamily=Helvetica;fontSize=12;align=center;strokeWidth=1;spacing=6;spacingTop=-4;" vertex="1" parent="WIyWlLk6GJQsqaUBKTNV-1">
          <mxGeometry x="710" y="760" width="100" height="80" as="geometry" />
        </mxCell>
        <mxCell id="ppS3Hu1m2jGu0qgifACF-57" value="Add T base to DNA string" style="rounded=1;whiteSpace=wrap;html=1;fontSize=10;glass=0;strokeWidth=1;shadow=0;" vertex="1" parent="WIyWlLk6GJQsqaUBKTNV-1">
          <mxGeometry x="880" y="780" width="120" height="40" as="geometry" />
        </mxCell>
        <mxCell id="ppS3Hu1m2jGu0qgifACF-58" value="No" style="edgeStyle=orthogonalEdgeStyle;rounded=0;html=1;jettySize=auto;orthogonalLoop=1;fontSize=11;endArrow=block;endFill=0;endSize=8;strokeWidth=1;shadow=0;labelBackgroundColor=none;fontColor=none;noLabel=1;exitX=1;exitY=0.5;exitDx=0;exitDy=0;entryX=0;entryY=0.5;entryDx=0;entryDy=0;" edge="1" parent="WIyWlLk6GJQsqaUBKTNV-1" source="ppS3Hu1m2jGu0qgifACF-57" target="ppS3Hu1m2jGu0qgifACF-74">
          <mxGeometry y="10" relative="1" as="geometry">
            <mxPoint as="offset" />
            <mxPoint x="1020" y="800" as="sourcePoint" />
            <mxPoint x="1040" y="800" as="targetPoint" />
          </mxGeometry>
        </mxCell>
        <mxCell id="ppS3Hu1m2jGu0qgifACF-59" value="Yes" style="rounded=0;html=1;jettySize=auto;orthogonalLoop=1;fontSize=11;endArrow=block;endFill=0;endSize=8;strokeWidth=1;shadow=0;labelBackgroundColor=none;edgeStyle=orthogonalEdgeStyle;exitX=1;exitY=0.5;exitDx=0;exitDy=0;entryX=0;entryY=0.5;entryDx=0;entryDy=0;" edge="1" parent="WIyWlLk6GJQsqaUBKTNV-1" source="ppS3Hu1m2jGu0qgifACF-56" target="ppS3Hu1m2jGu0qgifACF-57">
          <mxGeometry y="10" relative="1" as="geometry">
            <mxPoint as="offset" />
            <mxPoint x="819.9999999999995" y="799.5799999999999" as="sourcePoint" />
            <mxPoint x="879.9999999999995" y="799.5799999999999" as="targetPoint" />
          </mxGeometry>
        </mxCell>
        <mxCell id="ppS3Hu1m2jGu0qgifACF-60" value="Base is G?" style="rhombus;whiteSpace=wrap;html=1;shadow=0;fontFamily=Helvetica;fontSize=12;align=center;strokeWidth=1;spacing=6;spacingTop=-4;" vertex="1" parent="WIyWlLk6GJQsqaUBKTNV-1">
          <mxGeometry x="710" y="875" width="100" height="80" as="geometry" />
        </mxCell>
        <mxCell id="ppS3Hu1m2jGu0qgifACF-61" value="Yes" style="rounded=0;html=1;jettySize=auto;orthogonalLoop=1;fontSize=11;endArrow=block;endFill=0;endSize=8;strokeWidth=1;shadow=0;labelBackgroundColor=none;edgeStyle=orthogonalEdgeStyle;exitX=1;exitY=0.5;exitDx=0;exitDy=0;" edge="1" parent="WIyWlLk6GJQsqaUBKTNV-1" source="ppS3Hu1m2jGu0qgifACF-60">
          <mxGeometry y="10" relative="1" as="geometry">
            <mxPoint as="offset" />
            <mxPoint x="830" y="935" as="sourcePoint" />
            <mxPoint x="879.9999999999995" y="915" as="targetPoint" />
          </mxGeometry>
        </mxCell>
        <mxCell id="ppS3Hu1m2jGu0qgifACF-62" value="Add G base to DNA string" style="rounded=1;whiteSpace=wrap;html=1;fontSize=10;glass=0;strokeWidth=1;shadow=0;" vertex="1" parent="WIyWlLk6GJQsqaUBKTNV-1">
          <mxGeometry x="880" y="895" width="120" height="40" as="geometry" />
        </mxCell>
        <mxCell id="ppS3Hu1m2jGu0qgifACF-63" value="No" style="edgeStyle=orthogonalEdgeStyle;rounded=0;html=1;jettySize=auto;orthogonalLoop=1;fontSize=11;endArrow=block;endFill=0;endSize=8;strokeWidth=1;shadow=0;labelBackgroundColor=none;fontColor=none;noLabel=1;exitX=1;exitY=0.5;exitDx=0;exitDy=0;entryX=0;entryY=0.5;entryDx=0;entryDy=0;" edge="1" parent="WIyWlLk6GJQsqaUBKTNV-1" source="ppS3Hu1m2jGu0qgifACF-62" target="ppS3Hu1m2jGu0qgifACF-76">
          <mxGeometry y="10" relative="1" as="geometry">
            <mxPoint as="offset" />
            <mxPoint x="1020" y="914.58" as="sourcePoint" />
            <mxPoint x="1030" y="915" as="targetPoint" />
          </mxGeometry>
        </mxCell>
        <mxCell id="ppS3Hu1m2jGu0qgifACF-64" value="No" style="edgeStyle=orthogonalEdgeStyle;rounded=0;html=1;jettySize=auto;orthogonalLoop=1;fontSize=11;endArrow=block;endFill=0;endSize=8;strokeWidth=1;shadow=0;labelBackgroundColor=none;exitX=0.5;exitY=1;exitDx=0;exitDy=0;entryX=0.5;entryY=0;entryDx=0;entryDy=0;" edge="1" parent="WIyWlLk6GJQsqaUBKTNV-1" source="ppS3Hu1m2jGu0qgifACF-60" target="ppS3Hu1m2jGu0qgifACF-69">
          <mxGeometry y="10" relative="1" as="geometry">
            <mxPoint as="offset" />
            <mxPoint x="770" y="1015" as="sourcePoint" />
            <mxPoint x="769.9999999999995" y="985" as="targetPoint" />
          </mxGeometry>
        </mxCell>
        <mxCell id="ppS3Hu1m2jGu0qgifACF-65" value="Add C base to DNA string" style="rounded=1;whiteSpace=wrap;html=1;fontSize=10;glass=0;strokeWidth=1;shadow=0;" vertex="1" parent="WIyWlLk6GJQsqaUBKTNV-1">
          <mxGeometry x="880" y="1005" width="120" height="40" as="geometry" />
        </mxCell>
        <mxCell id="ppS3Hu1m2jGu0qgifACF-66" value="No" style="edgeStyle=orthogonalEdgeStyle;rounded=0;html=1;jettySize=auto;orthogonalLoop=1;fontSize=11;endArrow=block;endFill=0;endSize=8;strokeWidth=1;shadow=0;labelBackgroundColor=none;fontColor=none;noLabel=1;exitX=1;exitY=0.5;exitDx=0;exitDy=0;entryX=0;entryY=0.5;entryDx=0;entryDy=0;" edge="1" parent="WIyWlLk6GJQsqaUBKTNV-1" target="ppS3Hu1m2jGu0qgifACF-78">
          <mxGeometry y="10" relative="1" as="geometry">
            <mxPoint as="offset" />
            <mxPoint x="999.9999999999995" y="1024.58" as="sourcePoint" />
            <mxPoint x="1025" y="970" as="targetPoint" />
          </mxGeometry>
        </mxCell>
        <mxCell id="ppS3Hu1m2jGu0qgifACF-67" value="Yes" style="rounded=0;html=1;jettySize=auto;orthogonalLoop=1;fontSize=11;endArrow=block;endFill=0;endSize=8;strokeWidth=1;shadow=0;labelBackgroundColor=none;edgeStyle=orthogonalEdgeStyle;exitX=1;exitY=0.5;exitDx=0;exitDy=0;" edge="1" parent="WIyWlLk6GJQsqaUBKTNV-1" source="ppS3Hu1m2jGu0qgifACF-69">
          <mxGeometry y="10" relative="1" as="geometry">
            <mxPoint as="offset" />
            <mxPoint x="819.9999999999995" y="1024.58" as="sourcePoint" />
            <mxPoint x="879.9999999999995" y="1024.58" as="targetPoint" />
          </mxGeometry>
        </mxCell>
        <mxCell id="ppS3Hu1m2jGu0qgifACF-68" value="No" style="edgeStyle=orthogonalEdgeStyle;rounded=0;html=1;jettySize=auto;orthogonalLoop=1;fontSize=11;endArrow=block;endFill=0;endSize=8;strokeWidth=1;shadow=0;labelBackgroundColor=none;exitX=0.5;exitY=1;exitDx=0;exitDy=0;entryX=0.5;entryY=0;entryDx=0;entryDy=0;" edge="1" parent="WIyWlLk6GJQsqaUBKTNV-1" source="ppS3Hu1m2jGu0qgifACF-56" target="ppS3Hu1m2jGu0qgifACF-60">
          <mxGeometry y="10" relative="1" as="geometry">
            <mxPoint as="offset" />
            <mxPoint x="719.17" y="830" as="sourcePoint" />
            <mxPoint x="719.17" y="860" as="targetPoint" />
          </mxGeometry>
        </mxCell>
        <mxCell id="ppS3Hu1m2jGu0qgifACF-69" value="Base is C?" style="rhombus;whiteSpace=wrap;html=1;shadow=0;fontFamily=Helvetica;fontSize=12;align=center;strokeWidth=1;spacing=6;spacingTop=-4;" vertex="1" parent="WIyWlLk6GJQsqaUBKTNV-1">
          <mxGeometry x="710" y="985" width="100" height="80" as="geometry" />
        </mxCell>
        <mxCell id="ppS3Hu1m2jGu0qgifACF-70" value="for base in string:" style="edgeStyle=orthogonalEdgeStyle;rounded=0;jettySize=auto;orthogonalLoop=1;fontSize=10;endArrow=block;endFill=0;endSize=8;strokeWidth=1;shadow=0;labelBackgroundColor=none;fontColor=default;entryX=0;entryY=0.5;entryDx=0;entryDy=0;exitX=1;exitY=0.5;exitDx=0;exitDy=0;" edge="1" parent="WIyWlLk6GJQsqaUBKTNV-1" source="ppS3Hu1m2jGu0qgifACF-14" target="ppS3Hu1m2jGu0qgifACF-51">
          <mxGeometry y="10" relative="1" as="geometry">
            <mxPoint x="1" as="offset" />
            <mxPoint x="499.99999999999955" y="414.5" as="sourcePoint" />
            <mxPoint x="599.9999999999995" y="415" as="targetPoint" />
          </mxGeometry>
        </mxCell>
        <mxCell id="ppS3Hu1m2jGu0qgifACF-72" value="Add U base to mRNA string" style="rounded=1;whiteSpace=wrap;html=1;fontSize=10;glass=0;strokeWidth=1;shadow=0;" vertex="1" parent="WIyWlLk6GJQsqaUBKTNV-1">
          <mxGeometry x="1050" y="650" width="120" height="40" as="geometry" />
        </mxCell>
        <mxCell id="ppS3Hu1m2jGu0qgifACF-74" value="Add A base to mRNA string" style="rounded=1;whiteSpace=wrap;html=1;fontSize=10;glass=0;strokeWidth=1;shadow=0;" vertex="1" parent="WIyWlLk6GJQsqaUBKTNV-1">
          <mxGeometry x="1050" y="780" width="120" height="40" as="geometry" />
        </mxCell>
        <mxCell id="ppS3Hu1m2jGu0qgifACF-76" value="Add C base to mRNA string" style="rounded=1;whiteSpace=wrap;html=1;fontSize=10;glass=0;strokeWidth=1;shadow=0;" vertex="1" parent="WIyWlLk6GJQsqaUBKTNV-1">
          <mxGeometry x="1050" y="895" width="120" height="40" as="geometry" />
        </mxCell>
        <mxCell id="ppS3Hu1m2jGu0qgifACF-78" value="Add A base to mRNA string" style="rounded=1;whiteSpace=wrap;html=1;fontSize=10;glass=0;strokeWidth=1;shadow=0;" vertex="1" parent="WIyWlLk6GJQsqaUBKTNV-1">
          <mxGeometry x="1050" y="1005" width="120" height="40" as="geometry" />
        </mxCell>
        <mxCell id="ppS3Hu1m2jGu0qgifACF-82" value="Base is A?" style="rhombus;whiteSpace=wrap;html=1;shadow=0;fontFamily=Helvetica;fontSize=12;align=center;strokeWidth=1;spacing=6;spacingTop=-4;" vertex="1" parent="WIyWlLk6GJQsqaUBKTNV-1">
          <mxGeometry x="710" y="1110" width="100" height="80" as="geometry" />
        </mxCell>
        <mxCell id="ppS3Hu1m2jGu0qgifACF-83" value="for base in string:" style="edgeStyle=orthogonalEdgeStyle;rounded=0;jettySize=auto;orthogonalLoop=1;fontSize=10;endArrow=block;endFill=0;endSize=8;strokeWidth=1;shadow=0;labelBackgroundColor=none;fontColor=default;entryX=0;entryY=0.5;entryDx=0;entryDy=0;exitX=1;exitY=0.5;exitDx=0;exitDy=0;" edge="1" parent="WIyWlLk6GJQsqaUBKTNV-1" source="ppS3Hu1m2jGu0qgifACF-11" target="ppS3Hu1m2jGu0qgifACF-82">
          <mxGeometry y="10" relative="1" as="geometry">
            <mxPoint x="1" as="offset" />
            <mxPoint x="600.0000000000005" y="1108.82" as="sourcePoint" />
            <mxPoint x="699.9999999999995" y="1108.82" as="targetPoint" />
          </mxGeometry>
        </mxCell>
        <mxCell id="ppS3Hu1m2jGu0qgifACF-84" value="Yes" style="rounded=0;html=1;jettySize=auto;orthogonalLoop=1;fontSize=11;endArrow=block;endFill=0;endSize=8;strokeWidth=1;shadow=0;labelBackgroundColor=none;edgeStyle=orthogonalEdgeStyle;entryX=0;entryY=0.5;entryDx=0;entryDy=0;exitX=0.5;exitY=1;exitDx=0;exitDy=0;" edge="1" parent="WIyWlLk6GJQsqaUBKTNV-1" source="ppS3Hu1m2jGu0qgifACF-3" target="ppS3Hu1m2jGu0qgifACF-6">
          <mxGeometry y="20" relative="1" as="geometry">
            <mxPoint as="offset" />
            <mxPoint x="219.41" y="770" as="sourcePoint" />
            <mxPoint x="219.41" y="1150" as="targetPoint" />
          </mxGeometry>
        </mxCell>
        <mxCell id="ppS3Hu1m2jGu0qgifACF-102" value="Base is U?" style="rhombus;whiteSpace=wrap;html=1;shadow=0;fontFamily=Helvetica;fontSize=12;align=center;strokeWidth=1;spacing=6;spacingTop=-4;" vertex="1" parent="WIyWlLk6GJQsqaUBKTNV-1">
          <mxGeometry x="710" y="1240" width="100" height="80" as="geometry" />
        </mxCell>
        <mxCell id="ppS3Hu1m2jGu0qgifACF-103" value="Base is G?" style="rhombus;whiteSpace=wrap;html=1;shadow=0;fontFamily=Helvetica;fontSize=12;align=center;strokeWidth=1;spacing=6;spacingTop=-4;" vertex="1" parent="WIyWlLk6GJQsqaUBKTNV-1">
          <mxGeometry x="710" y="1370" width="100" height="80" as="geometry" />
        </mxCell>
        <mxCell id="ppS3Hu1m2jGu0qgifACF-104" value="Base is C?" style="rhombus;whiteSpace=wrap;html=1;shadow=0;fontFamily=Helvetica;fontSize=12;align=center;strokeWidth=1;spacing=6;spacingTop=-4;" vertex="1" parent="WIyWlLk6GJQsqaUBKTNV-1">
          <mxGeometry x="710" y="1500" width="100" height="80" as="geometry" />
        </mxCell>
        <mxCell id="ppS3Hu1m2jGu0qgifACF-107" value="No" style="edgeStyle=orthogonalEdgeStyle;rounded=0;html=1;jettySize=auto;orthogonalLoop=1;fontSize=11;endArrow=block;endFill=0;endSize=8;strokeWidth=1;shadow=0;labelBackgroundColor=none;exitX=0.5;exitY=1;exitDx=0;exitDy=0;entryX=0.5;entryY=0;entryDx=0;entryDy=0;" edge="1" parent="WIyWlLk6GJQsqaUBKTNV-1">
          <mxGeometry y="10" relative="1" as="geometry">
            <mxPoint as="offset" />
            <mxPoint x="759.41" y="1190.0000000000005" as="sourcePoint" />
            <mxPoint x="759.41" y="1239.9999999999995" as="targetPoint" />
          </mxGeometry>
        </mxCell>
        <mxCell id="ppS3Hu1m2jGu0qgifACF-110" value="Yes" style="rounded=0;html=1;jettySize=auto;orthogonalLoop=1;fontSize=11;endArrow=block;endFill=0;endSize=8;strokeWidth=1;shadow=0;labelBackgroundColor=none;edgeStyle=orthogonalEdgeStyle;exitX=1;exitY=0.5;exitDx=0;exitDy=0;entryX=0;entryY=0.5;entryDx=0;entryDy=0;" edge="1" parent="WIyWlLk6GJQsqaUBKTNV-1" source="ppS3Hu1m2jGu0qgifACF-102" target="ppS3Hu1m2jGu0qgifACF-122">
          <mxGeometry y="10" relative="1" as="geometry">
            <mxPoint as="offset" />
            <mxPoint x="820" y="1279" as="sourcePoint" />
            <mxPoint x="879.9999999999998" y="1279.4099999999996" as="targetPoint" />
          </mxGeometry>
        </mxCell>
        <mxCell id="ppS3Hu1m2jGu0qgifACF-111" value="No" style="edgeStyle=orthogonalEdgeStyle;rounded=0;html=1;jettySize=auto;orthogonalLoop=1;fontSize=11;endArrow=block;endFill=0;endSize=8;strokeWidth=1;shadow=0;labelBackgroundColor=none;exitX=0.5;exitY=1;exitDx=0;exitDy=0;entryX=0.5;entryY=0;entryDx=0;entryDy=0;" edge="1" parent="WIyWlLk6GJQsqaUBKTNV-1">
          <mxGeometry y="10" relative="1" as="geometry">
            <mxPoint as="offset" />
            <mxPoint x="759.4099999999999" y="1320.0000000000005" as="sourcePoint" />
            <mxPoint x="759.4099999999999" y="1369.9999999999995" as="targetPoint" />
          </mxGeometry>
        </mxCell>
        <mxCell id="ppS3Hu1m2jGu0qgifACF-112" style="edgeStyle=orthogonalEdgeStyle;rounded=0;orthogonalLoop=1;jettySize=auto;html=0;exitX=0.5;exitY=1;exitDx=0;exitDy=0;fontSize=10;fontColor=default;" edge="1" parent="WIyWlLk6GJQsqaUBKTNV-1" source="ppS3Hu1m2jGu0qgifACF-103" target="ppS3Hu1m2jGu0qgifACF-103">
          <mxGeometry relative="1" as="geometry" />
        </mxCell>
        <mxCell id="ppS3Hu1m2jGu0qgifACF-113" value="No" style="edgeStyle=orthogonalEdgeStyle;rounded=0;html=1;jettySize=auto;orthogonalLoop=1;fontSize=11;endArrow=block;endFill=0;endSize=8;strokeWidth=1;shadow=0;labelBackgroundColor=none;exitX=0.5;exitY=1;exitDx=0;exitDy=0;entryX=0.5;entryY=0;entryDx=0;entryDy=0;" edge="1" parent="WIyWlLk6GJQsqaUBKTNV-1">
          <mxGeometry y="10" relative="1" as="geometry">
            <mxPoint as="offset" />
            <mxPoint x="759.4099999999999" y="1450.0000000000005" as="sourcePoint" />
            <mxPoint x="759.4099999999999" y="1499.9999999999995" as="targetPoint" />
          </mxGeometry>
        </mxCell>
        <mxCell id="ppS3Hu1m2jGu0qgifACF-114" value="Yes" style="rounded=0;html=1;jettySize=auto;orthogonalLoop=1;fontSize=11;endArrow=block;endFill=0;endSize=8;strokeWidth=1;shadow=0;labelBackgroundColor=none;edgeStyle=orthogonalEdgeStyle;exitX=1;exitY=0.5;exitDx=0;exitDy=0;entryX=0;entryY=0.5;entryDx=0;entryDy=0;" edge="1" parent="WIyWlLk6GJQsqaUBKTNV-1" source="ppS3Hu1m2jGu0qgifACF-82">
          <mxGeometry y="10" relative="1" as="geometry">
            <mxPoint as="offset" />
            <mxPoint x="820" y="1149" as="sourcePoint" />
            <mxPoint x="870" y="1149" as="targetPoint" />
          </mxGeometry>
        </mxCell>
        <mxCell id="ppS3Hu1m2jGu0qgifACF-115" value="Yes" style="rounded=0;html=1;jettySize=auto;orthogonalLoop=1;fontSize=11;endArrow=block;endFill=0;endSize=8;strokeWidth=1;shadow=0;labelBackgroundColor=none;edgeStyle=orthogonalEdgeStyle;exitX=1;exitY=0.5;exitDx=0;exitDy=0;entryX=0;entryY=0.5;entryDx=0;entryDy=0;" edge="1" parent="WIyWlLk6GJQsqaUBKTNV-1" source="ppS3Hu1m2jGu0qgifACF-103" target="ppS3Hu1m2jGu0qgifACF-123">
          <mxGeometry y="10" relative="1" as="geometry">
            <mxPoint as="offset" />
            <mxPoint x="830" y="1410" as="sourcePoint" />
            <mxPoint x="879.9999999999998" y="1409.4099999999999" as="targetPoint" />
          </mxGeometry>
        </mxCell>
        <mxCell id="ppS3Hu1m2jGu0qgifACF-116" value="Yes" style="rounded=0;html=1;jettySize=auto;orthogonalLoop=1;fontSize=11;endArrow=block;endFill=0;endSize=8;strokeWidth=1;shadow=0;labelBackgroundColor=none;edgeStyle=orthogonalEdgeStyle;exitX=1;exitY=0.5;exitDx=0;exitDy=0;entryX=0;entryY=0.5;entryDx=0;entryDy=0;" edge="1" parent="WIyWlLk6GJQsqaUBKTNV-1" source="ppS3Hu1m2jGu0qgifACF-104" target="ppS3Hu1m2jGu0qgifACF-124">
          <mxGeometry y="10" relative="1" as="geometry">
            <mxPoint as="offset" />
            <mxPoint x="940" y="1580.5899999999995" as="sourcePoint" />
            <mxPoint x="850" y="1540" as="targetPoint" />
          </mxGeometry>
        </mxCell>
        <mxCell id="ppS3Hu1m2jGu0qgifACF-122" value="Add A base to DNA string" style="rounded=1;whiteSpace=wrap;html=1;fontSize=10;glass=0;strokeWidth=1;shadow=0;" vertex="1" parent="WIyWlLk6GJQsqaUBKTNV-1">
          <mxGeometry x="870" y="1260" width="120" height="40" as="geometry" />
        </mxCell>
        <mxCell id="ppS3Hu1m2jGu0qgifACF-123" value="Add C base to DNA string" style="rounded=1;whiteSpace=wrap;html=1;fontSize=10;glass=0;strokeWidth=1;shadow=0;" vertex="1" parent="WIyWlLk6GJQsqaUBKTNV-1">
          <mxGeometry x="870" y="1390" width="120" height="40" as="geometry" />
        </mxCell>
        <mxCell id="ppS3Hu1m2jGu0qgifACF-124" value="Add C base to DNA string" style="rounded=1;whiteSpace=wrap;html=1;fontSize=10;glass=0;strokeWidth=1;shadow=0;" vertex="1" parent="WIyWlLk6GJQsqaUBKTNV-1">
          <mxGeometry x="870" y="1520" width="120" height="40" as="geometry" />
        </mxCell>
        <mxCell id="ppS3Hu1m2jGu0qgifACF-126" value="Add T base to DNA string" style="rounded=1;whiteSpace=wrap;html=1;fontSize=10;glass=0;strokeWidth=1;shadow=0;" vertex="1" parent="WIyWlLk6GJQsqaUBKTNV-1">
          <mxGeometry x="870" y="1129" width="120" height="40" as="geometry" />
        </mxCell>
        <mxCell id="ppS3Hu1m2jGu0qgifACF-131" value="Add A base to tRNA string" style="rounded=1;whiteSpace=wrap;html=1;fontSize=10;glass=0;strokeWidth=1;shadow=0;" vertex="1" parent="WIyWlLk6GJQsqaUBKTNV-1">
          <mxGeometry x="1050" y="1260" width="120" height="40" as="geometry" />
        </mxCell>
        <mxCell id="ppS3Hu1m2jGu0qgifACF-132" value="Yes" style="rounded=0;html=1;jettySize=auto;orthogonalLoop=1;fontSize=11;endArrow=block;endFill=0;endSize=8;strokeWidth=1;shadow=0;labelBackgroundColor=none;edgeStyle=orthogonalEdgeStyle;exitX=1;exitY=0.5;exitDx=0;exitDy=0;entryX=0;entryY=0.5;entryDx=0;entryDy=0;" edge="1" parent="WIyWlLk6GJQsqaUBKTNV-1" source="ppS3Hu1m2jGu0qgifACF-122" target="ppS3Hu1m2jGu0qgifACF-131">
          <mxGeometry y="10" relative="1" as="geometry">
            <mxPoint as="offset" />
            <mxPoint x="1070" y="1339.9999999999995" as="sourcePoint" />
            <mxPoint x="1030" y="1280" as="targetPoint" />
          </mxGeometry>
        </mxCell>
        <mxCell id="ppS3Hu1m2jGu0qgifACF-134" value="Add C base to tRNA string" style="rounded=1;whiteSpace=wrap;html=1;fontSize=10;glass=0;strokeWidth=1;shadow=0;" vertex="1" parent="WIyWlLk6GJQsqaUBKTNV-1">
          <mxGeometry x="1050" y="1390" width="120" height="40" as="geometry" />
        </mxCell>
        <mxCell id="ppS3Hu1m2jGu0qgifACF-135" value="Yes" style="rounded=0;html=1;jettySize=auto;orthogonalLoop=1;fontSize=11;endArrow=block;endFill=0;endSize=8;strokeWidth=1;shadow=0;labelBackgroundColor=none;edgeStyle=orthogonalEdgeStyle;exitX=1;exitY=0.5;exitDx=0;exitDy=0;entryX=0;entryY=0.5;entryDx=0;entryDy=0;" edge="1" parent="WIyWlLk6GJQsqaUBKTNV-1" source="ppS3Hu1m2jGu0qgifACF-123" target="ppS3Hu1m2jGu0qgifACF-134">
          <mxGeometry y="10" relative="1" as="geometry">
            <mxPoint as="offset" />
            <mxPoint x="980" y="1359.9999999999995" as="sourcePoint" />
            <mxPoint x="1040" y="1359.9999999999995" as="targetPoint" />
          </mxGeometry>
        </mxCell>
        <mxCell id="ppS3Hu1m2jGu0qgifACF-136" value="Yes" style="rounded=0;html=1;jettySize=auto;orthogonalLoop=1;fontSize=11;endArrow=block;endFill=0;endSize=8;strokeWidth=1;shadow=0;labelBackgroundColor=none;edgeStyle=orthogonalEdgeStyle;exitX=1;exitY=0.5;exitDx=0;exitDy=0;entryX=0;entryY=0.5;entryDx=0;entryDy=0;" edge="1" parent="WIyWlLk6GJQsqaUBKTNV-1" source="ppS3Hu1m2jGu0qgifACF-124" target="ppS3Hu1m2jGu0qgifACF-137">
          <mxGeometry y="10" relative="1" as="geometry">
            <mxPoint as="offset" />
            <mxPoint x="1020" y="1499.9999999999995" as="sourcePoint" />
            <mxPoint x="1000" y="1490" as="targetPoint" />
          </mxGeometry>
        </mxCell>
        <mxCell id="ppS3Hu1m2jGu0qgifACF-137" value="Add C base to tRNA string" style="rounded=1;whiteSpace=wrap;html=1;fontSize=10;glass=0;strokeWidth=1;shadow=0;" vertex="1" parent="WIyWlLk6GJQsqaUBKTNV-1">
          <mxGeometry x="1050" y="1520" width="120" height="40" as="geometry" />
        </mxCell>
        <mxCell id="ppS3Hu1m2jGu0qgifACF-138" value="Add A base to tRNA string" style="rounded=1;whiteSpace=wrap;html=1;fontSize=10;glass=0;strokeWidth=1;shadow=0;" vertex="1" parent="WIyWlLk6GJQsqaUBKTNV-1">
          <mxGeometry x="1060" y="1130" width="120" height="40" as="geometry" />
        </mxCell>
        <mxCell id="ppS3Hu1m2jGu0qgifACF-139" value="Yes" style="rounded=0;html=1;jettySize=auto;orthogonalLoop=1;fontSize=11;endArrow=block;endFill=0;endSize=8;strokeWidth=1;shadow=0;labelBackgroundColor=none;edgeStyle=orthogonalEdgeStyle;exitX=1;exitY=0.5;exitDx=0;exitDy=0;entryX=0;entryY=0.5;entryDx=0;entryDy=0;" edge="1" parent="WIyWlLk6GJQsqaUBKTNV-1" source="ppS3Hu1m2jGu0qgifACF-126" target="ppS3Hu1m2jGu0qgifACF-138">
          <mxGeometry y="10" relative="1" as="geometry">
            <mxPoint as="offset" />
            <mxPoint x="990" y="1189.9999999999995" as="sourcePoint" />
            <mxPoint x="1060" y="1160" as="targetPoint" />
          </mxGeometry>
        </mxCell>
        <mxCell id="ppS3Hu1m2jGu0qgifACF-142" value="translate(input_strand)" style="rounded=1;whiteSpace=wrap;html=1;fontSize=12;glass=0;strokeWidth=1;shadow=0;" vertex="1" parent="WIyWlLk6GJQsqaUBKTNV-1">
          <mxGeometry x="150" y="40" width="140" height="40" as="geometry" />
        </mxCell>
      </root>
    </mxGraphModel>
  </diagram>
</mxfile>
